<?xml version="1.0" standalone="no"?>
<!DOCTYPE svg PUBLIC "-//W3C//DTD SVG 20010904//EN"
 "http://www.w3.org/TR/2001/REC-SVG-20010904/DTD/svg10.dtd">
<svg version="1.0" xmlns="http://www.w3.org/2000/svg"
 width="700.000000pt" height="700.000000pt" viewBox="0 0 700.000000 700.000000"
 preserveAspectRatio="xMidYMid meet">
<metadata>
Created by potrace 1.11, written by Peter Selinger 2001-2013
</metadata>
<g transform="translate(0.000000,700.000000) scale(0.100000,-0.100000)"
fill="#000000" stroke="none">
<path d="M3225 5675 c-110 -15 -143 -22 -220 -41 -311 -79 -614 -235 -860
-445 -56 -48 -255 -251 -255 -260 0 -5 -8 -16 -18 -26 -29 -29 -96 -123 -133
-185 -32 -55 -36 -58 -89 -68 -392 -78 -739 -294 -1015 -631 -125 -153 -256
-424 -305 -632 -40 -171 -48 -247 -45 -437 4 -242 39 -413 126 -619 212 -500
605 -845 1129 -990 58 -16 123 -32 145 -35 22 -3 58 -9 80 -13 51 -10 3635
-10 3695 0 83 14 105 18 165 33 98 25 174 53 280 104 388 187 674 546 774 970
29 122 35 178 35 330 0 131 -4 169 -23 275 -47 256 -192 529 -383 725 -117
120 -225 199 -377 276 -133 66 -211 96 -333 124 l-96 22 -7 36 c-11 59 -91
264 -144 369 -41 82 -168 284 -209 334 -248 299 -506 497 -825 633 -158 68
-356 126 -482 141 -27 4 -61 9 -75 12 -52 12 -446 10 -535 -2z"/>
</g>
</svg>
